<?xml version="1.0" encoding="UTF-8"?>
<svg id="Capa_2" data-name="Capa 2" xmlns="http://www.w3.org/2000/svg" viewBox="0 0 414.57 137.74">
  <defs>
    <style>
      .cls-1 {
        fill: #fff;
      }

      .cls-2 {
        fill: none;
      }
    </style>
  </defs>
  <g id="_1" data-name="1">
    <g>
      <g>
        <path class="cls-1" d="m132.03,82.14c0,1.49.05,3.94.19,5.76h-7.58c.14-1.82.19-4.27.19-5.76v-2.45h-10.85l-1.82,3.31c-.77,1.44-1.44,3.22-2.06,4.9h-8.02c.91-1.68,1.78-3.17,2.74-4.9l15.36-27.36c.72-1.25,1.3-2.45,1.87-3.74h10.18c-.14,1.82-.19,4.27-.19,5.76v24.48Zm-7.2-8.11v-14.35l-7.78,14.35h7.78Z"/>
        <path class="cls-1" d="m138.94,82.14v-24.48c0-1.49-.05-3.84-.19-5.76h7.58c-.14,1.92-.19,4.27-.19,5.76v24.29h9.41c1.54,0,3.79-.05,5.57-.19l-.43,6.14h-21.94c.14-1.82.19-4.27.19-5.76Z"/>
        <path class="cls-1" d="m165.91,82.14v-24.48c0-1.49-.05-3.84-.19-5.76h21.51l.43,6.14c-1.63-.1-3.98-.19-5.38-.19h-9.17v8.83h8.54c1.06,0,2.45-.05,3.46-.1l.43,5.95c-1.01-.05-2.83-.1-3.89-.1h-8.54v9.5h9.41c1.54,0,3.6-.05,5.38-.19l-.43,6.14h-21.75c.14-1.82.19-4.27.19-5.76Z"/>
        <path class="cls-1" d="m211.18,57.47c-7.34,0-12.24,4.18-12.24,12.34s4.27,12.58,11.42,12.58c1.39,0,2.64-.14,3.84-.38v-6.19c0-1.49-.05-3.89-.19-5.76h7.39c-.14,1.82-.19,4.27-.19,5.76v4.9c0,1.49.05,4.32.19,6.14-1.15.19-2.35.43-4.13.86-1.82.43-4.42.77-7.15.77-11.47,0-18.39-6.96-18.39-18.77s7.34-18.39,19.11-18.39c3.12,0,6.62.48,8.74,1.1l.43,6.53c-1.78-.86-5.76-1.49-8.83-1.49Z"/>
        <path class="cls-1" d="m227.78,82.14v-24.48c0-1.49-.05-3.89-.19-5.76h12.15c9.12,0,14.02,4.03,14.02,11.09,0,4.94-2.54,8.02-6.72,9.55,2.74,1.58,3.74,4.27,5.52,9.31,2.4,6.82,5.81,9.31,12.1,9.31,2.11,0,3.5-.14,4.7-.48l-.38,5.86c-1.34.53-2.69.72-4.42.72-10.99,0-15.27-4.32-18.77-13.39-2.69-6.96-3.98-8.4-7.92-8.4h-2.88v6.67c0,1.49.05,3.94.19,5.76h-7.58c.14-1.82.19-4.27.19-5.76Zm7.2-24.29v11.67h4.61c4.37,0,6.96-2.02,6.96-5.9s-2.16-5.76-6.96-5.76h-4.61Z"/>
        <path class="cls-1" d="m260.23,82.14v-24.48c0-1.49-.05-3.89-.19-5.76h7.58c-.14,1.82-.19,4.27-.19,5.76v24.48c0,1.49.05,3.94.19,5.76h-7.58c.14-1.82.19-4.27.19-5.76Zm7.1-32.16h-6.05l1.25-3.79c.48-1.49,1.2-3.89,1.68-5.71h8.31c-1.1,1.87-2.16,3.79-3.41,6.14l-1.78,3.36Z"/>
        <path class="cls-1" d="m273.05,77.1l7.01-22.56c.29-.86.53-1.78.67-2.64h8.69c.19.96.43,1.78.72,2.64l7.06,22.56c.38,1.2.86,2.4,1.39,3.6h-7.68c-.19-1.2-.43-2.4-.77-3.6l-.38-1.34h-9.79l-.38,1.34c-.34,1.15-.58,2.4-.77,3.6h-7.15c.53-1.2,1.01-2.4,1.39-3.6Zm15.31-6.58l-3.5-12.48-3.41,12.48h6.91Z"/>
        <path class="cls-1" d="m325.37,52.04l.19,6.58c-2.5-.67-3.65-.86-4.9-.86-4.08,0-5.81,2.4-7.44,9.89l-1.92,8.93c-2.4,11.19-8.3,15.84-18.43,15.84-2.02,0-3.41-.14-4.9-.58l-.38-6.43c1.44.34,3.12.48,5.66.48,6.19,0,9.27-2.74,10.99-10.85l1.92-8.93c2.26-10.51,6.53-14.79,14.16-14.79,1.25,0,2.64.14,5.04.72Z"/>
      </g>
      <rect class="cls-2" width="414.57" height="137.74"/>
    </g>
  </g>
</svg>