<?xml version="1.0" encoding="UTF-8"?>
<svg id="Capa_2" data-name="Capa 2" xmlns="http://www.w3.org/2000/svg" viewBox="0 0 414.57 137.74">
  <defs>
    <style>
      .cls-1 {
        fill: #fff;
      }

      .cls-2 {
        fill: none;
      }
    </style>
  </defs>
  <g id="_1" data-name="1">
    <g>
      <path class="cls-1" d="m101.3,82.14v-24.48c0-1.58-.05-3.84-.19-5.76h12.53c8.26,0,12.48,3.55,12.48,9.46,0,2.98-.91,5.28-4.08,7.39,3.89,2.02,5.42,5.14,5.42,8.64,0,6.62-4.7,10.51-13.63,10.51h-12.72c.14-1.82.19-4.27.19-5.76Zm7.2-24.29v9.02h5.33c2.93,0,5.09-.96,5.09-4.51,0-3.07-1.73-4.51-6-4.51h-4.42Zm0,14.5v9.79h4.61c4.94,0,7.15-1.49,7.15-5.14,0-3.46-2.83-4.66-6.43-4.66h-5.33Z"/>
      <path class="cls-1" d="m161.06,51.9c-.14,1.92-.19,4.27-.19,5.76v15.65c0,9.98-4.8,15.17-13.92,15.17s-14.35-5.18-14.35-15.17v-15.65c0-1.49-.05-3.84-.19-5.76h7.58c-.14,1.92-.19,4.27-.19,5.76v16.51c0,5.38,2.45,8.16,7.15,8.16s7.15-2.78,7.15-8.16v-16.51c0-1.49-.05-3.84-.19-5.76h7.15Z"/>
      <path class="cls-1" d="m167.59,82.14v-24.48c0-1.49-.05-3.84-.19-5.76h7.58c-.14,1.92-.19,4.27-.19,5.76v24.29h9.41c1.54,0,3.79-.05,5.57-.19l-.43,6.14h-21.94c.14-1.82.19-4.27.19-5.76Z"/>
      <path class="cls-1" d="m191.69,74.85v-17.19c0-1.49-.05-3.84-.19-5.76h17.62l.43,6.14c-1.78-.14-4.03-.19-5.57-.19h-5.86v5.28h3.55c1.92,0,3.6-.05,5.14-.19l.43,6.05c-1.78-.14-4.03-.19-5.57-.19h-3.55v5.95h6.14c1.54,0,3.79-.05,5.57-.19l-.43,6.14h-17.91c.14-1.87.19-4.32.19-5.86Z"/>
      <path class="cls-1" d="m215.69,82.14v-24.48c0-1.49-.05-3.89-.19-5.76h12.15c9.12,0,14.02,4.03,14.02,11.09,0,4.94-2.54,8.02-6.72,9.55,2.74,1.58,3.74,4.27,5.52,9.31,2.4,6.82,5.81,9.31,12.1,9.31,2.11,0,3.5-.14,4.7-.48l-.38,5.86c-1.34.53-2.69.72-4.42.72-10.99,0-15.27-4.32-18.77-13.39-2.69-6.96-3.98-8.4-7.92-8.4h-2.88v6.67c0,1.49.05,3.94.19,5.76h-7.58c.14-1.82.19-4.27.19-5.76Zm7.2-24.29v11.67h4.61c4.37,0,6.96-2.02,6.96-5.9s-2.16-5.76-6.96-5.76h-4.61Z"/>
      <path class="cls-1" d="m248.13,82.14v-24.48c0-1.49-.05-3.89-.19-5.76h7.58c-.14,1.82-.19,4.27-.19,5.76v24.48c0,1.49.05,3.94.19,5.76h-7.58c.14-1.82.19-4.27.19-5.76Zm7.1-32.16h-6.05l1.25-3.79c.48-1.49,1.2-3.89,1.68-5.71h8.31c-1.1,1.87-2.16,3.79-3.41,6.14l-1.78,3.36Z"/>
      <path class="cls-1" d="m260.95,77.1l7.01-22.56c.29-.86.53-1.78.67-2.64h8.69c.19.96.43,1.78.72,2.64l7.06,22.56c.38,1.2.86,2.4,1.39,3.6h-7.68c-.19-1.2-.43-2.4-.77-3.6l-.38-1.34h-9.79l-.38,1.34c-.34,1.15-.58,2.4-.77,3.6h-7.15c.53-1.2,1.01-2.4,1.39-3.6Zm15.31-6.58l-3.5-12.48-3.41,12.48h6.91Z"/>
      <path class="cls-1" d="m313.27,52.04l.19,6.58c-2.5-.67-3.65-.86-4.9-.86-4.08,0-5.81,2.4-7.44,9.89l-1.92,8.93c-2.4,11.19-8.3,15.84-18.43,15.84-2.02,0-3.41-.14-4.9-.58l-.38-6.43c1.44.34,3.12.48,5.66.48,6.19,0,9.27-2.74,10.99-10.85l1.92-8.93c2.26-10.51,6.53-14.79,14.16-14.79,1.25,0,2.64.14,5.04.72Z"/>
    </g>
    <rect class="cls-2" width="414.57" height="137.74"/>
  </g>
</svg>