<?xml version="1.0" encoding="UTF-8"?>
<svg id="Capa_2" data-name="Capa 2" xmlns="http://www.w3.org/2000/svg" viewBox="0 0 414.57 137.74">
  <defs>
    <style>
      .cls-1 {
        fill: #fff;
      }

      .cls-2 {
        fill: none;
      }
    </style>
  </defs>
  <g id="_1" data-name="1">
    <g>
      <path class="cls-1" d="m79.44,87.01l-.24-6.38c2.4.19,3.7.29,4.94.29,4.08,0,5.86-2.4,7.44-9.79l1.92-8.93c2.4-11.18,8.3-15.84,18.43-15.84,2.02,0,3.65.29,4.94.82l.34,6.53c-1.54-.62-3.31-.91-6-.91-6.1,0-9.07,3.02-10.8,10.94l-1.92,8.93c-2.26,10.51-6.48,14.79-14.02,14.79-1.25,0-2.64-.1-5.04-.43Z"/>
      <path class="cls-1" d="m108.62,81.01v-17.19c0-1.49-.05-3.84-.19-5.76h17.62l.43,6.14c-1.78-.14-4.03-.19-5.57-.19h-5.86v5.28h3.55c1.92,0,3.6-.05,5.14-.19l.43,6.05c-1.78-.14-4.03-.19-5.57-.19h-3.55v5.95h6.14c1.54,0,3.79-.05,5.57-.19l-.43,6.14h-17.91c.14-1.87.19-4.32.19-5.86Z"/>
      <path class="cls-1" d="m160.13,55.76l-9.02,27.36c-.43,1.25-.72,2.5-.86,3.74h-9.55c-.14-1.25-.43-2.5-.86-3.74l-9.02-27.36c-.48-1.39-1.25-3.36-2.02-4.9h8.64c.24,1.68.77,3.36,1.2,4.9l7.01,23.81,7.1-23.81c.53-1.54.96-3.22,1.2-4.9h8.21c-.77,1.54-1.54,3.5-2.02,4.9Z"/>
      <path class="cls-1" d="m166.18,81.11v-24.48c0-1.49-.05-3.89-.19-5.76h7.58c-.14,1.82-.19,4.27-.19,5.76v24.48c0,1.49.05,3.94.19,5.76h-7.58c.14-1.82.19-4.27.19-5.76Z"/>
      <path class="cls-1" d="m180.29,81.11v-24.48c0-1.49-.05-3.84-.19-5.76h7.58c-.14,1.92-.19,4.27-.19,5.76v24.29h9.41c1.54,0,3.79-.05,5.57-.19l-.43,6.14h-21.94c.14-1.82.19-4.27.19-5.76Z"/>
      <path class="cls-1" d="m194.4,71.01v-15.61c0-1.35-.04-3.49-.17-5.23h6.19c-.13,1.74-.17,3.88-.17,5.23v15.52h5.41c1.4,0,3.44-.04,5.06-.17l-.39,5.58h-16.09c.13-1.7.17-3.92.17-5.32Z"/>
      <path class="cls-1" d="m213.5,81.97l9.02-27.36c.43-1.25.72-2.5.86-3.74h9.17l10.27,31.11c.48,1.39,1.25,3.36,2.02,4.9h-8.64c-.24-1.68-.67-3.36-1.2-4.9l-.34-1.06h-13.44l-.34,1.06c-.53,1.54-.96,3.22-1.2,4.9h-8.21c.77-1.54,1.54-3.5,2.02-4.9Zm19.3-7.01l-4.8-16.85-4.9,16.85h9.7Z"/>
      <path class="cls-1" d="m248.88,81.11v-24.48c0-1.49-.05-3.89-.19-5.76h7.49l14.35,23.76v-18c0-1.49-.05-3.94-.19-5.76h7.1c-.14,1.82-.19,4.27-.19,5.76v30.24h-6.53l-15.12-24.87v19.11c0,1.49.05,3.94.19,5.76h-7.1c.14-1.82.19-4.27.19-5.76Z"/>
      <path class="cls-1" d="m282.86,76.07l7.01-22.56c.29-.86.53-1.78.67-2.64h8.69c.19.96.43,1.78.72,2.64l7.06,22.56c.38,1.2.86,2.4,1.39,3.6h-7.68c-.19-1.2-.43-2.4-.77-3.6l-.38-1.34h-9.79l-.38,1.34c-.34,1.15-.58,2.4-.77,3.6h-7.15c.53-1.2,1.01-2.4,1.39-3.6Zm15.31-6.58l-3.5-12.48-3.41,12.48h6.91Z"/>
      <path class="cls-1" d="m335.18,51.01l.19,6.58c-2.5-.67-3.65-.86-4.9-.86-4.08,0-5.81,2.4-7.44,9.89l-1.92,8.93c-2.4,11.19-8.3,15.84-18.43,15.84-2.02,0-3.41-.14-4.9-.58l-.38-6.43c1.44.34,3.12.48,5.66.48,6.19,0,9.27-2.74,10.99-10.85l1.92-8.93c2.26-10.51,6.53-14.79,14.16-14.79,1.25,0,2.64.14,5.04.72Z"/>
    </g>
    <rect class="cls-2" width="414.57" height="137.74"/>
  </g>
</svg>