<?xml version="1.0" encoding="UTF-8"?>
<svg id="Capa_2" data-name="Capa 2" xmlns="http://www.w3.org/2000/svg" viewBox="0 0 414.57 137.74">
  <defs>
    <style>
      .cls-1 {
        fill: #fff;
      }

      .cls-2 {
        fill: none;
      }
    </style>
  </defs>
  <g id="_1" data-name="1">
    <g>
      <path class="cls-1" d="m135.29,92.44l-.24-6.38c2.45.19,3.7.29,4.94.29,4.08,0,5.86-2.45,7.44-9.79l2.88-13.39c2.35-11.04,8.31-15.7,18.43-15.7,2.02,0,3.46.19,4.94.82l.34,6.53c-1.54-.62-3.26-.91-5.95-.91-6.05,0-8.98,2.74-10.71,10.8l-2.88,13.39c-2.26,10.42-6.53,14.79-14.16,14.79-1.25,0-2.64-.1-5.04-.43Z"/>
      <path class="cls-1" d="m161.54,77.75c0-9.36,5.14-14.83,13.92-14.83s13.97,5.47,13.97,14.83-5.18,15.12-13.97,15.12-13.92-5.62-13.92-15.12Zm21.36.24c0-6-2.64-9.31-7.44-9.31s-7.39,3.31-7.39,9.31,2.64,9.22,7.39,9.22,7.44-3.26,7.44-9.22Z"/>
      <path class="cls-1" d="m194.81,86.53v-24.48c0-1.49-.05-3.84-.19-5.76h7.58c-.14,1.92-.19,4.27-.19,5.76v24.29h9.41c1.54,0,3.79-.05,5.57-.19l-.43,6.14h-21.94c.14-1.82.19-4.27.19-5.76Z"/>
      <path class="cls-1" d="m221.78,86.53v-24.48c0-1.49-.05-3.84-.19-5.76h21.51l.43,6.14c-1.63-.1-3.98-.19-5.38-.19h-9.17v8.83h8.54c1.06,0,2.45-.05,3.46-.1l.43,5.95c-1.01-.05-2.83-.1-3.89-.1h-8.54v9.5h9.41c1.54,0,3.6-.05,5.38-.19l-.43,6.14h-21.75c.14-1.82.19-4.27.19-5.76Z"/>
      <path class="cls-1" d="m248.18,87.4l9.02-27.36c.43-1.25.72-2.5.86-3.74h9.17l10.27,31.11c.48,1.39,1.25,3.36,2.02,4.9h-8.64c-.24-1.68-.67-3.36-1.2-4.9l-.34-1.06h-13.44l-.34,1.06c-.53,1.54-.96,3.22-1.2,4.9h-8.21c.77-1.54,1.54-3.5,2.02-4.9Zm19.3-7.01l-4.8-16.85-4.9,16.85h9.7Zm-1.25-26.02h-6.05l1.25-3.79c.48-1.49,1.2-3.89,1.68-5.71h8.3c-1.1,1.87-2.16,3.79-3.41,6.14l-1.78,3.36Z"/>
    </g>
    <rect class="cls-2" width="414.57" height="137.74"/>
  </g>
</svg>