<?xml version="1.0" encoding="UTF-8"?>
<svg id="Capa_2" data-name="Capa 2" xmlns="http://www.w3.org/2000/svg" viewBox="0 0 414.57 137.74">
  <defs>
    <style>
      .cls-1 {
        fill: #fff;
      }

      .cls-2 {
        fill: none;
      }
    </style>
  </defs>
  <g id="_1" data-name="1">
    <g>
      <path class="cls-1" d="m126.72,79.14v-24.29h-4.7c-1.34,0-3.6.05-5.38.19l.43-6.14h26.5l.43,6.14c-1.78-.14-4.03-.19-5.52-.19h-4.56v24.29c0,1.49.05,3.84.19,5.76h-7.58c.14-1.92.19-4.27.19-5.76Z"/>
      <path class="cls-1" d="m170.02,79.14c0,1.49.05,3.94.19,5.76h-7.58c.14-1.82.19-4.27.19-5.76v-2.45h-10.85l-1.82,3.31c-.77,1.44-1.44,3.22-2.06,4.9h-8.02c.91-1.68,1.78-3.17,2.74-4.9l15.36-27.36c.72-1.25,1.3-2.45,1.87-3.74h10.18c-.14,1.82-.19,4.27-.19,5.76v24.48Zm-7.2-8.11v-14.35l-7.78,14.35h7.78Z"/>
      <path class="cls-1" d="m176.93,79.14v-24.48c0-1.49-.05-3.89-.19-5.76h7.49l14.35,23.76v-18c0-1.49-.05-3.94-.19-5.76h7.1c-.14,1.82-.19,4.27-.19,5.76v30.24h-6.53l-15.12-24.87v19.11c0,1.49.05,3.94.19,5.76h-7.1c.14-1.82.19-4.27.19-5.76Z"/>
      <path class="cls-1" d="m230.21,54.47c-7.34,0-12.24,4.18-12.24,12.34s4.27,12.58,11.42,12.58c1.39,0,2.64-.14,3.84-.38v-6.19c0-1.49-.05-3.89-.19-5.76h7.39c-.14,1.82-.19,4.27-.19,5.76v4.9c0,1.49.05,4.32.19,6.14-1.15.19-2.35.43-4.13.86-1.82.43-4.42.77-7.15.77-11.47,0-18.39-6.96-18.39-18.77s7.34-18.39,19.11-18.39c3.12,0,6.62.48,8.74,1.1l.43,6.53c-1.78-.86-5.76-1.49-8.83-1.49Z"/>
      <path class="cls-1" d="m244.32,63.16c0-9.36,5.14-14.83,13.92-14.83s13.97,5.47,13.97,14.83-5.18,15.12-13.97,15.12-13.92-5.62-13.92-15.12Zm21.36.24c0-6-2.64-9.31-7.44-9.31s-7.39,3.31-7.39,9.31,2.64,9.22,7.39,9.22,7.44-3.26,7.44-9.22Z"/>
      <path class="cls-1" d="m297.74,49.04l.19,6.58c-2.5-.67-3.65-.86-4.9-.86-4.08,0-5.81,2.4-7.44,9.89l-1.92,8.93c-2.4,11.19-8.3,15.84-18.43,15.84-2.02,0-3.41-.14-4.9-.58l-.38-6.43c1.44.34,3.12.48,5.66.48,6.19,0,9.27-2.74,10.99-10.85l1.92-8.93c2.26-10.51,6.53-14.79,14.16-14.79,1.25,0,2.64.14,5.04.72Z"/>
    </g>
    <rect class="cls-2" width="414.57" height="137.74"/>
  </g>
</svg>