<?xml version="1.0" encoding="UTF-8"?>
<svg id="Capa_2" data-name="Capa 2" xmlns="http://www.w3.org/2000/svg" viewBox="0 0 414.57 137.74">
  <defs>
    <style>
      .cls-1 {
        fill: #fff;
      }

      .cls-2 {
        fill: none;
      }
    </style>
  </defs>
  <g id="_1" data-name="1">
    <g>
      <path class="cls-1" d="m83.37,79.14v-24.48c0-1.49-.05-3.84-.19-5.76h21.07l.43,6.14c-1.63-.1-3.98-.19-5.38-.19h-8.74v9.98h8.26c1.1,0,2.5-.05,3.5-.1l.43,5.95c-1.01-.05-2.83-.1-3.89-.1h-8.3v8.54c0,1.49.05,3.94.19,5.76h-7.58c.14-1.82.19-4.27.19-5.76Z"/>
      <path class="cls-1" d="m102.19,80.01l15.55-27.36c.72-1.25,1.3-2.45,1.87-3.74h11.38l14.35,23.76v-18c0-1.49-.05-3.94-.19-5.76h7.1c-.14,1.82-.19,4.27-.19,5.76v30.24h-6.53l-15.12-24.87v19.11c0,1.49.05,3.94.19,5.76h-7.1c.14-1.82.19-4.27.19-5.76v-.05h-13.3l-.48.91c-.77,1.44-1.44,3.17-2.02,4.9h-8.5c1.1-1.87,1.92-3.36,2.78-4.9Zm21.51-6.82v-18.24l-10.03,18.24h10.03Z"/>
      <path class="cls-1" d="m158.97,79.14v-24.48c0-1.58-.05-3.84-.19-5.76h11.52c11.47,0,17.57,6.29,17.57,17.81s-6.1,18.19-17.57,18.19h-11.52c.14-1.82.19-4.27.19-5.76Zm7.2-24.29v24.1h4.13c7.1,0,10.32-3.84,10.32-12s-3.22-12.1-10.32-12.1h-4.13Z"/>
      <path class="cls-1" d="m188.88,80.01l15.55-27.36c.72-1.25,1.3-2.45,1.87-3.74h11.38l14.35,23.76v-18c0-1.49-.05-3.94-.19-5.76h7.1c-.14,1.82-.19,4.27-.19,5.76v30.24h-6.53l-15.12-24.87v19.11c0,1.49.05,3.94.19,5.76h-7.1c.14-1.82.19-4.27.19-5.76v-.05h-13.3l-.48.91c-.77,1.44-1.44,3.17-2.02,4.9h-8.5c1.1-1.87,1.92-3.36,2.78-4.9Zm21.51-6.82v-18.24l-10.03,18.24h10.03Z"/>
      <path class="cls-1" d="m263.66,54.47c-7.34,0-12.24,4.18-12.24,12.34s4.27,12.58,11.42,12.58c1.39,0,2.64-.14,3.84-.38v-6.19c0-1.49-.05-3.89-.19-5.76h7.39c-.14,1.82-.19,4.27-.19,5.76v4.9c0,1.49.05,4.32.19,6.14-1.15.19-2.35.43-4.13.86-1.82.43-4.42.77-7.15.77-11.47,0-18.39-6.96-18.39-18.77s7.34-18.39,19.11-18.39c3.12,0,6.62.48,8.74,1.1l.43,6.53c-1.78-.86-5.76-1.49-8.83-1.49Z"/>
      <path class="cls-1" d="m277.77,63.16c0-9.36,5.14-14.83,13.92-14.83s13.97,5.47,13.97,14.83-5.18,15.12-13.97,15.12-13.92-5.62-13.92-15.12Zm21.36.24c0-6-2.64-9.31-7.44-9.31s-7.39,3.31-7.39,9.31,2.64,9.22,7.39,9.22,7.44-3.26,7.44-9.22Z"/>
      <path class="cls-1" d="m331.2,49.04l.19,6.58c-2.5-.67-3.65-.86-4.9-.86-4.08,0-5.81,2.4-7.44,9.89l-1.92,8.93c-2.4,11.19-8.3,15.84-18.43,15.84-2.02,0-3.41-.14-4.9-.58l-.38-6.43c1.44.34,3.12.48,5.66.48,6.19,0,9.27-2.74,10.99-10.85l1.92-8.93c2.26-10.51,6.53-14.79,14.16-14.79,1.25,0,2.64.14,5.04.72Z"/>
    </g>
    <rect class="cls-2" width="414.57" height="137.74"/>
  </g>
</svg>