<?xml version="1.0" encoding="UTF-8"?>
<svg id="Capa_2" data-name="Capa 2" xmlns="http://www.w3.org/2000/svg" viewBox="0 0 209.16 34.21">
  <defs>
    <style>
      .cls-1 {
        fill: #941c14;
      }
    </style>
  </defs>
  <g id="_1" data-name="1">
    <g>
      <path class="cls-1" d="m.16,25.66V5.28C.16,4.04.12,2.04,0,.48h10.59c7.71,0,11.79,3.84,11.79,10.83s-4.08,11.15-11.79,11.15h-4.44v3.2c0,1.24.04,3.28.16,4.8H0c.12-1.52.16-3.56.16-4.8ZM6.15,5.44v12.07h3.84c4.4,0,6.35-1.96,6.35-5.95s-1.96-6.11-6.35-6.11h-3.84Z"/>
      <path class="cls-1" d="m25.13,18.34c0-7.79,4.28-12.35,11.59-12.35s11.63,4.56,11.63,12.35-4.32,12.59-11.63,12.59-11.59-4.68-11.59-12.59Zm17.78.2c0-4.99-2.2-7.75-6.19-7.75s-6.15,2.76-6.15,7.75,2.2,7.67,6.15,7.67,6.19-2.72,6.19-7.67Z"/>
      <path class="cls-1" d="m52.82,25.66V5.28c0-1.24-.04-3.24-.16-4.8h10.11c7.55,0,11.59,3.28,11.59,8.99,0,4.04-1.88,6.59-5.12,7.83,1.52,1.08,2,3,3.4,6.11,1.72,3.8,4.24,5.35,7.27,5.35,2.12,0,3.52-.12,4.72-.4l-.32,4.88c-1.24.44-2.48.6-4.08.6-7.11,0-10.75-2.8-13.23-8.75-1.84-4.4-2.76-5.39-5.48-5.39h-2.72v5.95c0,1.24.04,3.28.16,4.8h-6.31c.12-1.52.16-3.56.16-4.8Zm5.99-20.22v9.35h3.84c3.64,0,5.79-1.64,5.79-4.8s-1.8-4.56-5.79-4.56h-3.84Z"/>
      <path class="cls-1" d="m99.01,25.66V5.28c0-1.24-.04-3.24-.16-4.8h10.59c7.71,0,11.79,3.84,11.79,10.83s-4.08,11.15-11.79,11.15h-4.44v3.2c0,1.24.04,3.28.16,4.8h-6.31c.12-1.52.16-3.56.16-4.8Zm5.99-20.22v12.07h3.84c4.4,0,6.35-1.96,6.35-5.95s-1.96-6.11-6.35-6.11h-3.84Z"/>
      <path class="cls-1" d="m122.98,21.46l5.83-18.78c.24-.72.44-1.48.56-2.2h7.23c.16.8.36,1.48.6,2.2l5.87,18.78c.32,1,.72,2,1.16,3h-6.39c-.16-1-.36-2-.64-3l-.32-1.12h-8.15l-.32,1.12c-.28.96-.48,2-.64,3h-5.95c.44-1,.84-2,1.16-3Zm12.75-5.48l-2.92-10.39-2.84,10.39h5.75Z"/>
      <path class="cls-1" d="m147.75,25.66V5.28c0-1.24-.04-3.2-.16-4.8h6.32c-.12,1.6-.16,3.56-.16,4.8v20.22h7.83c1.28,0,3.16-.04,4.64-.16l-.36,5.12h-18.26c.12-1.52.16-3.56.16-4.8Z"/>
      <path class="cls-1" d="m164.53,12.35c0-7.79,4.28-12.35,11.59-12.35s11.63,4.56,11.63,12.35-4.32,12.59-11.63,12.59-11.59-4.68-11.59-12.59Zm17.78.2c0-4.99-2.2-7.75-6.19-7.75s-6.15,2.76-6.15,7.75,2.2,7.67,6.15,7.67,6.19-2.72,6.19-7.67Z"/>
      <path class="cls-1" d="m209,.6l.16,5.48c-2.08-.56-3.04-.72-4.08-.72-3.4,0-4.83,2-6.19,8.23l-1.6,7.43c-2,9.31-6.91,13.19-15.35,13.19-1.68,0-2.84-.12-4.08-.48l-.32-5.36c1.2.28,2.6.4,4.72.4,5.16,0,7.71-2.28,9.15-9.03l1.6-7.43c1.88-8.75,5.44-12.31,11.79-12.31,1.04,0,2.2.12,4.2.6Z"/>
    </g>
  </g>
</svg>