<?xml version="1.0" encoding="UTF-8"?>
<svg id="Capa_2" data-name="Capa 2" xmlns="http://www.w3.org/2000/svg" viewBox="0 0 2228.66 636.31">
  <defs>
    <style>
      .cls-1 {
        letter-spacing: -.05em;
      }

      .cls-2 {
        letter-spacing: -.06em;
      }

      .cls-3 {
        letter-spacing: -.06em;
      }

      .cls-4 {
        letter-spacing: -.02em;
      }

      .cls-5 {
        letter-spacing: -.04em;
      }

      .cls-6 {
        font-family: WorkSans-SemiBold, 'Work Sans';
        font-size: 473.97px;
        font-weight: 600;
      }

      .cls-6, .cls-7 {
        fill: #941c14;
      }

      .cls-8 {
        letter-spacing: -.06em;
      }

      .cls-7 {
        stroke-width: 0px;
      }

      .cls-9 {
        letter-spacing: -.06em;
      }
    </style>
  </defs>
  <g id="Capa_2-2" data-name="Capa 2">
    <g>
      <path class="cls-7" d="M318.16,0C142.44,0,0,142.44,0,318.16s142.44,318.15,318.16,318.15,318.15-142.44,318.15-318.15S493.87,0,318.16,0ZM397,452.73c-4.17,2.78-8.89,4.11-13.56,4.11-7.91,0-15.67-3.83-20.39-10.9-14.65-21.97-41.83-26.92-56.73-27.91-25.57-1.71-52.67,5.17-72.49,18.38-11.25,7.5-26.44,4.46-33.94-6.79-7.5-11.25-4.46-26.44,6.79-33.94,59.38-39.58,156.28-38.11,197.1,23.11,7.5,11.25,4.46,26.44-6.79,33.94ZM451.94,349.16c-4.81,6.41-12.16,9.79-19.6,9.79-5.11,0-10.26-1.59-14.67-4.9-53.49-40.12-141.52-60.53-217.62-15.69-11.65,6.86-26.65,2.98-33.51-8.66-6.86-11.65-2.98-26.65,8.66-33.51,42.92-25.29,92.47-36.03,143.29-31.05,46.13,4.51,91.78,22.19,128.55,49.76,10.81,8.11,13,23.45,4.89,34.27ZM502.06,249.55c-4.64,7.43-12.62,11.51-20.78,11.51-4.43,0-8.91-1.2-12.95-3.72-137.22-85.77-266.15-33.31-302.39-15.18-12.09,6.04-26.79,1.15-32.84-10.95-6.04-12.09-1.14-26.79,10.95-32.84,25.68-12.84,79.15-34.75,148.75-37.24,71.54-2.55,139.32,15.85,201.47,54.69,11.46,7.16,14.95,22.26,7.78,33.73Z"/>
      <text class="cls-6" transform="translate(699.97 439.97)"><tspan class="cls-3" x="0" y="0">S</tspan><tspan class="cls-9" x="277.94" y="0">p</tspan><tspan class="cls-8" x="547.72" y="0">o</tspan><tspan class="cls-1" x="803.05" y="0">t</tspan><tspan class="cls-2" x="982.78" y="0">i</tspan><tspan class="cls-4" x="1086.82" y="0">f</tspan><tspan class="cls-5" x="1269.91" y="0">y</tspan></text>
    </g>
  </g>
</svg>