<?xml version="1.0" encoding="UTF-8"?>
<svg id="Capa_2" data-name="Capa 2" xmlns="http://www.w3.org/2000/svg" viewBox="0 0 716.73 586.42">
  <defs>
    <style>
      .cls-1 {
        fill: #941c14;
        stroke-width: 0px;
      }
    </style>
  </defs>
  <g id="Capa_1-2" data-name="Capa 1">
    <path class="cls-1" d="M553.84,0c89.96,0,162.89,72.93,162.89,162.89v260.63c0,89.96-72.93,162.89-162.89,162.89H162.89C72.93,586.42,0,513.49,0,423.52V162.89C0,72.93,72.93,0,162.89,0h390.94ZM260.63,195.47v195.47c.01,17.99,14.61,32.57,32.6,32.55,5.89,0,11.67-1.61,16.72-4.63l162.89-97.74c15.42-9.27,20.4-29.29,11.13-44.71-2.74-4.56-6.57-8.39-11.13-11.13l-162.89-97.74c-15.43-9.25-35.44-4.23-44.69,11.2-3.03,5.05-4.63,10.83-4.63,16.72Z"/>
  </g>
</svg>